<svg width="15" height="15" viewBox="0 0 15 15" fill="none" xmlns="http://www.w3.org/2000/svg">
<g clip-path="url(#clip0_43_1063)">
<path d="M14.4999 3.12512V11.8751C14.4999 12.3717 14.1215 12.7501 13.6249 12.7501H12.7499V4.80906L7.49989 8.58031L2.24989 4.80906V12.7501H1.37489C0.878331 12.7501 0.499893 12.3717 0.499893 11.8751V3.12512C0.499893 2.87662 0.593518 2.65787 0.750581 2.50299C0.832336 2.42109 0.92975 2.35649 1.03701 2.31304C1.14427 2.2696 1.25918 2.2482 1.37489 2.25012H1.66671L7.49989 6.47943L13.3331 2.25012H13.6249C13.8734 2.25012 14.0921 2.34374 14.2492 2.50299C14.4063 2.65787 14.4999 2.87662 14.4999 3.12512Z" fill="white"/>
</g>
<defs>
<clipPath id="clip0_43_1063">
<rect width="14" height="14" fill="white" transform="translate(0.5 0.5)"/>
</clipPath>
</defs>
</svg>
