<svg width="25" height="26" viewBox="0 0 25 26" fill="none" xmlns="http://www.w3.org/2000/svg">
<path d="M17.4999 6.75C17.4999 6.41848 17.6316 6.10054 17.866 5.86612C18.1004 5.6317 18.4184 5.5 18.7499 5.5C19.0814 5.5 19.3994 5.6317 19.6338 5.86612C19.8682 6.10054 19.9999 6.41848 19.9999 6.75C19.9999 7.08152 19.8682 7.39946 19.6338 7.63388C19.3994 7.8683 19.0814 8 18.7499 8C18.4184 8 18.1004 7.8683 17.866 7.63388C17.6316 7.39946 17.4999 7.08152 17.4999 6.75Z" fill="#F92C2C"/>
<path fill-rule="evenodd" clip-rule="evenodd" d="M12.5001 7.0625C10.9253 7.0625 9.41511 7.68806 8.30161 8.80155C7.18812 9.91505 6.56256 11.4253 6.56256 13C6.56256 14.5747 7.18812 16.0849 8.30161 17.1984C9.41511 18.3119 10.9253 18.9375 12.5001 18.9375C14.0748 18.9375 15.585 18.3119 16.6985 17.1984C17.812 16.0849 18.4376 14.5747 18.4376 13C18.4376 11.4253 17.812 9.91505 16.6985 8.80155C15.585 7.68806 14.0748 7.0625 12.5001 7.0625ZM8.43756 13C8.43756 11.9226 8.86557 10.8892 9.62744 10.1274C10.3893 9.36551 11.4226 8.9375 12.5001 8.9375C13.5775 8.9375 14.6108 9.36551 15.3727 10.1274C16.1345 10.8892 16.5626 11.9226 16.5626 13C16.5626 14.0774 16.1345 15.1108 15.3727 15.8726C14.6108 16.6345 13.5775 17.0625 12.5001 17.0625C11.4226 17.0625 10.3893 16.6345 9.62744 15.8726C8.86557 15.1108 8.43756 14.0774 8.43756 13Z" fill="#F92C2C"/>
<path fill-rule="evenodd" clip-rule="evenodd" d="M19.0725 1.54109C14.7043 1.05662 10.2958 1.05662 5.92755 1.54109C3.41255 1.82234 1.3813 3.80359 1.0863 6.33109C0.568931 10.7619 0.568931 15.2378 1.0863 19.6686C1.3813 22.1961 3.4113 24.1773 5.92755 24.4586C10.2959 24.942 14.7042 24.942 19.0725 24.4586C21.5875 24.1773 23.6188 22.1961 23.9138 19.6686C24.4312 15.2378 24.4312 10.7619 23.9138 6.33109C23.6188 3.80359 21.5888 1.82234 19.0725 1.54109ZM6.13505 3.40359C10.3654 2.93447 14.6347 2.93447 18.865 3.40359C20.5275 3.59109 21.8588 4.90234 22.0525 6.54984C22.554 10.8352 22.554 15.1645 22.0525 19.4498C21.9523 20.2561 21.5832 21.0051 21.0049 21.5758C20.4265 22.1464 19.6726 22.5055 18.865 22.5948C14.6347 23.064 10.3654 23.064 6.13505 22.5948C5.32747 22.5055 4.57361 22.1464 3.99524 21.5758C3.41687 21.0051 3.04776 20.2561 2.94755 19.4498C2.44612 15.1645 2.44612 10.8352 2.94755 6.54984C3.04776 5.74354 3.41687 4.99456 3.99524 4.4239C4.57361 3.85324 5.32747 3.49297 6.13505 3.40359Z" fill="#F92C2C"/>
</svg>
