<svg width="23" height="23" viewBox="0 0 23 23" fill="none" xmlns="http://www.w3.org/2000/svg">
<path d="M7.6405 12.4925V4.37324C7.6405 3.99324 7.79146 3.6288 8.06016 3.36009C8.32887 3.09139 8.69331 2.94043 9.07332 2.94043C9.45332 2.94043 9.81776 3.09139 10.0865 3.36009C10.3552 3.6288 10.5061 3.99324 10.5061 4.37324V11.5373M10.5061 11.0597V9.14928C10.5061 8.76928 10.6571 8.40484 10.9258 8.13613C11.1945 7.86743 11.5589 7.71647 11.9389 7.71647C12.3189 7.71647 12.6834 7.86743 12.9521 8.13613C13.2208 8.40484 13.3718 8.76928 13.3718 9.14928V11.5373M13.3718 10.1045C13.3718 9.72449 13.5227 9.36004 13.7914 9.09134C14.0601 8.82264 14.4246 8.67168 14.8046 8.67168C15.1846 8.67168 15.549 8.82264 15.8177 9.09134C16.0864 9.36004 16.2374 9.72449 16.2374 10.1045V11.5373" stroke="white" stroke-width="1.6375" stroke-linecap="round" stroke-linejoin="round"/>
<path d="M16.2382 11.0587C16.2382 10.6787 16.3892 10.3143 16.6579 10.0456C16.9266 9.77688 17.291 9.62593 17.671 9.62593C18.051 9.62593 18.4155 9.77688 18.6842 10.0456C18.9529 10.3143 19.1038 10.6787 19.1038 11.0587V15.3572C19.1038 16.8772 18.5 18.335 17.4252 19.4098C16.3504 20.4846 14.8926 21.0884 13.3726 21.0884H11.4622H11.6608C10.7117 21.0886 9.77736 20.853 8.94174 20.4029C8.10612 19.9527 7.39538 19.3021 6.87334 18.5094L6.68612 18.2228C6.3881 17.7653 5.34215 15.9418 3.54731 12.7514C3.36434 12.4261 3.31546 12.0424 3.41108 11.6817C3.50669 11.321 3.73926 11.0118 4.0593 10.8199C4.40019 10.6154 4.79966 10.5306 5.19424 10.5791C5.58883 10.6275 5.95591 10.8064 6.23718 11.0874L7.64133 12.4915M2.42685 5.41728C3.15989 4.88137 3.94754 4.42447 4.77666 4.0542M13.3726 3.37695C14.6165 3.71075 15.8031 4.22983 16.8925 4.91675" stroke="white" stroke-width="1.6375" stroke-linecap="round" stroke-linejoin="round"/>
</svg>
