<svg width="25" height="25" viewBox="0 0 25 25" fill="none" xmlns="http://www.w3.org/2000/svg">
<circle cx="12.5" cy="12.5" r="12.5" fill="#C60000"/>
<path fill-rule="evenodd" clip-rule="evenodd" d="M20 12.5C20 12.6705 19.9322 12.834 19.8117 12.9546C19.6911 13.0751 19.5276 13.1429 19.3571 13.1429L13.1428 13.1429L13.1428 19.3571C13.1428 19.5276 13.0751 19.6912 12.9545 19.8117C12.834 19.9323 12.6705 20 12.5 20C12.3295 20 12.166 19.9323 12.0454 19.8117C11.9248 19.6912 11.8571 19.5276 11.8571 19.3571V13.1429H5.64283C5.47233 13.1429 5.30882 13.0751 5.18826 12.9546C5.0677 12.834 4.99997 12.6705 4.99997 12.5C4.99997 12.3295 5.0677 12.166 5.18826 12.0454C5.30882 11.9249 5.47233 11.8571 5.64283 11.8571L11.8571 11.8571L11.8571 5.64286C11.8571 5.47236 11.9248 5.30885 12.0454 5.18829C12.166 5.06773 12.3295 5 12.5 5C12.6705 5 12.834 5.06773 12.9545 5.18829C13.0751 5.30885 13.1428 5.47236 13.1428 5.64286V11.8571H19.3571C19.5276 11.8571 19.6911 11.9249 19.8117 12.0454C19.9322 12.166 20 12.3295 20 12.5Z" fill="white"/>
</svg>
